# xmcd
#
# Track frame offsets: 
#        151
#        9591
#        21893
#        37918
#        53299
#        67063
#        79938
#        90148
#        103298
#        115385
#        127092
#        136010
#        150944
#        163635
#
# Disc length: 2205 seconds
#
# Revision: 0
# Processed by: cddbd v1.5.2PL0 Copyright (c) Steve Scherf et al.
# Submitted via: ExactAudioCopyFreeDBPlugin 1.0
#
DISCID=a4089b0e
DTITLE=Ian Gomm and Jeb Loy Nichols - Only Time Will Tell
DYEAR=2010
DGENRE=Country
TTITLE0=Take This Hurt Off Me
TTITLE1=Hold On To A Dream
TTITLE2=I'll Take Good Care Of You
TTITLE3=Snakes And Ladders
TTITLE4=Surprise Surprise
TTITLE5=Mister Moon
TTITLE6=Quiet Life
TTITLE7=Hooked On Love
TTITLE8=You Must Believe Me
TTITLE9=Lovers Walk
TTITLE10=Years From Now
TTITLE11=Go Through Sunday
TTITLE12=No One Loves You Like I Do
TTITLE13=I Can't Write Another Song
EXTD=
EXTT0=
EXTT1=
EXTT2=
EXTT3=
EXTT4=
EXTT5=
EXTT6=
EXTT7=
EXTT8=
EXTT9=
EXTT10=
EXTT11=
EXTT12=
EXTT13=
PLAYORDER=
